<svg width="754" height="314" fill="none" xmlns="http://www.w3.org/2000/svg"><path d="M304.313 28.39c.368.159.765.238 1.166.233.795 0 1.589-.245 2.2-.856 13.262-13.322 30.984-20.656 49.807-20.656a72.05 72.05 0 0120.411 2.995c1.589.55 3.3-.367 3.789-2.017a3.06 3.06 0 00-2.017-3.789c-7.15-2.2-14.667-3.3-22.183-3.3-20.473 0-39.662 7.945-54.146 22.367-1.222 1.222-1.222 3.117 0 4.339.273.294.604.527.973.685z" fill="#000"/><path d="M290.507 86.435a3.026 3.026 0 003.056 3.055 3.025 3.025 0 003.055-3.055c0-33.55 27.317-60.868 60.868-60.868a3.026 3.026 0 003.056-3.055 3.026 3.026 0 00-3.056-3.056c-36.912 0-66.979 30.067-66.979 66.979zm127.174 6.111a3.025 3.025 0 01-3.055-3.056 3.026 3.026 0 013.055-3.055 37.948 37.948 0 0021.756-6.845c10.023-7.15 16.073-18.7 16.073-31.045a3.026 3.026 0 013.055-3.055 3.064 3.064 0 013.056 3.055 44.012 44.012 0 01-18.7 35.995c-7.395 5.256-16.134 8.006-25.24 8.006z" fill="#000"/><path d="M449.962 3.117A3.13 3.13 0 00446.845 0a3.13 3.13 0 00-3.117 3.117V13.64l-1.937 1.516h-30.434c-26.419 0-47.502 23.13-47.502 50.112v2.628c0 4.448 3.495 8.25 8.06 8.25h30.55c26.34 0 47.497-22.135 47.497-49.195V3.117zm-7.328 18.15a8.701 8.701 0 01-3.306 3.3l-49.378 26.95c-1.528.795-2.078 2.69-1.223 4.217a3.143 3.143 0 004.217 1.284l49.379-26.95c.51-.286 1.004-.6 1.479-.942-1.094 22.887-19.281 40.908-41.337 40.908h-30.556c-.965 0-1.943-.843-1.943-2.138v-2.628c0-23.987 18.712-44.001 41.385-44.001h31.283zM318.022 80.543l5.353 5.58h43.206c39.375 0 70.793 33.532 70.793 74.19v3.85c0 7.29-5.696 13.75-13.372 13.75h-44.355c-39.381 0-70.792-33.532-70.792-74.19v-35.14c0-2.505 2.078-4.583 4.583-4.583 2.506 0 4.584 2.078 4.584 4.583v11.96zm61.625 85.148h44.355a.943.943 0 00.703-.337 1.71 1.71 0 00.446-1.191v-3.85c0-34.51-26.523-61.968-58.57-61.968h-44.599c.751.703 1.589 1.32 2.517 1.833l72.724 39.723c2.2 1.222 3.055 3.973 1.833 6.234-.794 1.527-2.383 2.383-3.972 2.383-.733 0-1.467-.183-2.2-.55l-71.611-39.112c2.475 32.054 27.94 56.835 58.374 56.835zM41.832 240.412v10.419H26.356v43.211H15.4v-43.211H0v-10.419h41.832zm11.842 16.855c4.239-4.188 9.423-6.283 15.553-6.283 6.129 0 11.313 2.095 15.552 6.283 4.29 4.188 6.436 9.423 6.436 15.706 0 6.333-2.12 11.594-6.359 15.783-4.188 4.137-9.398 6.205-15.63 6.205-6.18 0-11.39-2.094-15.629-6.282-4.188-4.188-6.282-9.424-6.282-15.706 0-6.283 2.12-11.518 6.359-15.706zm23.29 7.355c-2.042-2.145-4.622-3.218-7.737-3.218-3.116 0-5.721 1.073-7.815 3.218-2.043 2.145-3.065 4.929-3.065 8.351 0 3.422 1.022 6.206 3.065 8.351 2.094 2.145 4.699 3.218 7.815 3.218 3.115 0 5.695-1.073 7.738-3.218 2.094-2.145 3.14-4.929 3.14-8.351 0-3.422-1.046-6.206-3.14-8.351zm49.2 1.456v10.496h-25.82v-10.496h25.82zm42.236-31.03h10.956v58.994H168.4v-5.669c-3.218 4.392-7.636 6.588-13.254 6.588-5.517 0-10.114-2.043-13.791-6.129-3.627-4.137-5.44-9.423-5.44-15.859s1.813-11.697 5.44-15.783c3.677-4.137 8.249-6.206 13.714-6.206 5.618 0 10.062 2.273 13.331 6.819v-22.755zm-10.803 49.494c3.116 0 5.695-1.073 7.738-3.218s3.065-4.929 3.065-8.351c0-3.422-1.022-6.206-3.065-8.351-2.043-2.145-4.622-3.218-7.738-3.218-3.115 0-5.669 1.073-7.661 3.218s-2.988 4.929-2.988 8.351c0 3.422.996 6.206 2.988 8.351 2.043 2.145 4.597 3.218 7.661 3.218zm35.839-27.275c4.24-4.188 9.424-6.283 15.553-6.283 6.129 0 11.314 2.095 15.553 6.283 4.291 4.188 6.436 9.423 6.436 15.706 0 6.333-2.12 11.594-6.359 15.783-4.189 4.137-9.398 6.205-15.63 6.205-6.18 0-11.39-2.094-15.629-6.282-4.189-4.188-6.283-9.424-6.283-15.706 0-6.283 2.12-11.518 6.359-15.706zm23.291 7.355c-2.043-2.145-4.622-3.218-7.738-3.218-3.115 0-5.72 1.073-7.814 3.218-2.044 2.145-3.065 4.929-3.065 8.351 0 3.422 1.021 6.206 3.065 8.351 2.094 2.145 4.699 3.218 7.814 3.218 3.116 0 5.695-1.073 7.738-3.218 2.095-2.145 3.142-4.929 3.142-8.351 0-3.422-1.047-6.206-3.142-8.351zm44.97 29.42v-58.994h10.956v58.994h-10.956zm25.192-61.598c1.992 0 3.627.612 4.904 1.838 1.277 1.175 1.915 2.707 1.915 4.597 0 1.89-.638 3.448-1.915 4.674-1.277 1.226-2.912 1.838-4.904 1.838-1.94 0-3.575-.612-4.903-1.838-1.277-1.226-1.915-2.784-1.915-4.674 0-1.839.638-3.371 1.915-4.597 1.328-1.226 2.963-1.838 4.903-1.838zm-5.516 61.598v-42.138h10.956v42.138h-10.956zm39.213.919c-5.67 0-10.394-1.302-14.174-3.907-3.78-2.656-6.053-6.282-6.819-10.879h11.109c.92 3.779 4.316 5.669 10.19 5.669 4.75 0 7.125-1.149 7.125-3.447a2.25 2.25 0 00-.153-.843 1.338 1.338 0 00-.383-.69 2.67 2.67 0 00-.536-.536c-.205-.204-.511-.383-.92-.536a12.388 12.388 0 00-.996-.383c-.306-.103-.766-.23-1.379-.383a33.615 33.615 0 00-1.532-.384 42.358 42.358 0 00-1.762-.383 30.256 30.256 0 01-1.992-.459c-6.283-1.482-10.675-3.09-13.178-4.827-2.452-1.788-3.677-4.444-3.677-7.968 0-4.393 1.66-7.815 4.98-10.266 3.371-2.503 7.865-3.755 13.484-3.755 5.618 0 9.985 1.226 13.101 3.678 3.116 2.401 5.057 5.669 5.823 9.807h-11.109c-.92-2.861-3.652-4.291-8.198-4.291-4.699 0-7.049 1.175-7.049 3.525 0 .919.485 1.583 1.456 1.991.97.409 3.167.996 6.589 1.763 3.422.766 6.129 1.481 8.121 2.145a27.926 27.926 0 015.669 2.452c1.788 1.021 3.065 2.247 3.831 3.677.766 1.43 1.149 3.167 1.149 5.21 0 4.546-1.762 8.019-5.286 10.42-3.524 2.4-8.019 3.6-13.484 3.6zm57.216-12.258l1.838 8.887c-1.277.869-3.115 1.66-5.516 2.375a25.808 25.808 0 01-7.048.996c-4.546 0-8.326-1.43-11.339-4.29-2.963-2.86-4.444-7.151-4.444-12.871v-15.553h-7.508v-10.343h7.508v-9.117l10.956-2.375v11.492h15.629v10.343h-15.629v14.94c0 5.056 2.247 7.585 6.742 7.585 1.992 0 4.929-.69 8.811-2.069zm37.478-50.259c1.992 0 3.626.612 4.903 1.838 1.277 1.175 1.915 2.707 1.915 4.597 0 1.89-.638 3.448-1.915 4.674-1.277 1.226-2.911 1.838-4.903 1.838-1.941 0-3.576-.612-4.904-1.838-1.277-1.226-1.915-2.784-1.915-4.674 0-1.839.638-3.371 1.915-4.597 1.328-1.226 2.963-1.838 4.904-1.838zm-5.517 61.598v-42.138h10.956v42.138h-10.956zm39.213.919c-5.67 0-10.394-1.302-14.174-3.907-3.78-2.656-6.052-6.282-6.819-10.879h11.11c.919 3.779 4.316 5.669 10.189 5.669 4.75 0 7.126-1.149 7.126-3.447a2.25 2.25 0 00-.154-.843 1.331 1.331 0 00-.383-.69 2.67 2.67 0 00-.536-.536c-.204-.204-.511-.383-.919-.536-.358-.154-.69-.281-.996-.383-.307-.103-.767-.23-1.38-.383a33.288 33.288 0 00-1.532-.384 41.996 41.996 0 00-1.762-.383 30.256 30.256 0 01-1.992-.459c-6.282-1.482-10.675-3.09-13.178-4.827-2.451-1.788-3.677-4.444-3.677-7.968 0-4.393 1.66-7.815 4.98-10.266 3.371-2.503 7.866-3.755 13.484-3.755s9.985 1.226 13.101 3.678c3.116 2.401 5.057 5.669 5.823 9.807h-11.109c-.92-2.861-3.652-4.291-8.198-4.291-4.699 0-7.049 1.175-7.049 3.525 0 .919.486 1.583 1.456 1.991.97.409 3.167.996 6.589 1.763 3.422.766 6.129 1.481 8.121 2.145a27.958 27.958 0 015.67 2.452c1.787 1.021 3.064 2.247 3.83 3.677.767 1.43 1.15 3.167 1.15 5.21 0 4.546-1.763 8.019-5.287 10.42-3.524 2.4-8.019 3.6-13.484 3.6zm69.842-43.977c6.896 0 12.335 2.375 16.319 7.126 4.035 4.75 5.772 10.649 5.21 17.698h-32.331c.357 3.269 1.532 5.771 3.524 7.508s4.469 2.605 7.432 2.605c2.145 0 4.06-.46 5.746-1.379 1.685-.971 2.886-2.273 3.601-3.908h11.339c-1.482 4.751-4.087 8.326-7.815 10.727-3.729 2.4-7.994 3.6-12.795 3.6-6.538 0-11.875-2.068-16.012-6.205-4.138-4.138-6.206-9.373-6.206-15.706 0-6.334 2.068-11.595 6.206-15.783 4.137-4.188 9.398-6.283 15.782-6.283zm-.076 9.041c-2.605 0-4.776.715-6.513 2.145-1.736 1.379-2.962 3.244-3.677 5.593h20.15c-.613-2.349-1.788-4.214-3.525-5.593-1.736-1.43-3.881-2.145-6.435-2.145zm79.476-9.041c4.495 0 8.045 1.456 10.649 4.367 2.605 2.912 3.908 6.921 3.908 12.029v26.662h-10.956v-24.287c0-2.758-.588-4.827-1.762-6.206-1.124-1.43-2.963-2.145-5.517-2.145-2.86 0-5.031.919-6.512 2.758-1.481 1.788-2.222 4.367-2.222 7.738v22.142H574.85v-24.287c0-2.758-.587-4.827-1.762-6.206-1.123-1.43-2.962-2.145-5.516-2.145-2.86 0-5.057.919-6.589 2.758-1.481 1.788-2.222 4.367-2.222 7.738l.077 22.142h-11.033v-42.138h11.033v5.593c3.064-4.342 7.227-6.513 12.488-6.513 6.129 0 10.394 2.656 12.795 7.968 3.269-5.312 7.968-7.968 14.097-7.968zm47.58 0c5.465 0 10.037 2.069 13.714 6.206 3.678 4.086 5.517 9.347 5.517 15.783s-1.839 11.722-5.517 15.859c-3.626 4.086-8.197 6.129-13.714 6.129-5.567 0-10.011-2.196-13.331-6.588v24.823h-10.956v-61.292h10.956v5.899c3.269-4.546 7.713-6.819 13.331-6.819zm-2.528 33.558c3.065 0 5.593-1.073 7.585-3.218 2.043-2.145 3.064-4.929 3.064-8.351 0-3.422-.996-6.206-2.988-8.351-1.992-2.145-4.545-3.218-7.661-3.218-3.116 0-5.695 1.073-7.738 3.218s-3.065 4.929-3.065 8.351c0 3.422 1.022 6.206 3.065 8.351 2.043 2.145 4.622 3.218 7.738 3.218zm60.744-1.839l1.839 8.887c-1.277.869-3.116 1.66-5.516 2.375-2.35.664-4.699.996-7.049.996-4.546 0-8.325-1.43-11.339-4.29-2.962-2.86-4.443-7.151-4.443-12.871v-15.553h-7.509v-10.343h7.509v-9.117l10.956-2.375v11.492h15.629v10.343h-15.629v14.94c0 5.056 2.247 7.585 6.742 7.585 1.992 0 4.929-.69 8.81-2.069zm37.675-30.799h11.722l-27.428 61.292h-11.645l11.032-24.747-16.242-36.545h11.645l10.42 24.67 10.496-24.67z" fill="#000"/></svg>