<svg width="785" height="166" fill="none" xmlns="http://www.w3.org/2000/svg"><path d="M56.191 30.256v-16.32H2.719v16.32h18.048V82h17.376V30.256h18.048zm4.522 29.376c0 15.552 14.112 23.328 28.224 23.328s28.128-7.776 28.128-23.328V36.4c0-15.552-14.112-23.328-28.224-23.328S60.713 20.752 60.713 36.4v23.232zM77.897 36.4c0-4.992 5.376-7.68 10.752-7.68 5.568 0 11.232 2.4 11.232 7.68v23.232c0 4.896-5.472 7.392-10.944 7.392s-11.04-2.4-11.04-7.392V36.4zm64.961 13.824a15.59 15.59 0 0015.648 15.648c8.544 0 15.456-7.008 15.456-15.648 0-8.544-6.912-15.552-15.456-15.552-8.736 0-15.648 7.008-15.648 15.552zm58.518-36.192V82h25.44c13.632.096 26.4-6.72 26.4-22.368V36.784c0-15.84-12.768-22.752-26.4-22.752h-25.44zm17.28 51.84V30.064h8.736c5.76 0 8.544 2.784 8.544 7.2V58.48c0 4.416-2.688 7.392-8.544 7.392h-8.736zm42.119-6.24c0 15.552 14.112 23.328 28.224 23.328s28.128-7.776 28.128-23.328V36.4c0-15.552-14.112-23.328-28.224-23.328s-28.128 7.68-28.128 23.328v23.232zM277.959 36.4c0-4.992 5.376-7.68 10.752-7.68 5.568 0 11.232 2.4 11.232 7.68v23.232c0 4.896-5.472 7.392-10.944 7.392s-11.04-2.4-11.04-7.392V36.4zm64.962 13.824a15.59 15.59 0 0015.648 15.648c8.544 0 15.456-7.008 15.456-15.648 0-8.544-6.912-15.552-15.456-15.552-8.736 0-15.648 7.008-15.648 15.552zM401.439 82h44.928V65.008h-27.648V14.032h-17.28V82zm68.933-67.968h-17.183V82h17.183V14.032zm7.49 56.64c6.336 8.16 14.976 12.288 23.136 12.288 12.48 0 26.304-7.2 26.88-20.352.768-16.704-11.328-20.928-23.424-23.136-5.28-1.152-8.832-3.072-9.024-6.336.288-7.872 12.48-8.16 19.584-.576l11.232-8.64c-7.008-8.544-14.976-10.848-23.232-10.848-12.48 0-24.576 7.008-24.576 20.352 0 12.96 9.984 19.872 20.928 21.6 5.568.768 11.808 2.976 11.616 6.816-.48 7.296-15.456 6.912-22.272-1.344l-10.848 10.176zm106.891-40.416v-16.32h-53.472v16.32h18.049V82h17.376V30.256h18.047z" fill="#000"/><path d="M18.553 132.172h6.35l-14.859 33.204H3.735l5.977-13.406-8.799-19.798h6.309l5.645 13.365 5.686-13.365zm11.038 2.905c2.297-2.269 5.105-3.403 8.426-3.403 3.32 0 6.129 1.134 8.425 3.403 2.325 2.269 3.487 5.105 3.487 8.509 0 3.431-1.149 6.281-3.445 8.55-2.27 2.241-5.092 3.362-8.467 3.362-3.349 0-6.17-1.134-8.468-3.403-2.268-2.269-3.403-5.106-3.403-8.509 0-3.404 1.148-6.24 3.445-8.509zm12.618 3.985c-1.107-1.162-2.505-1.743-4.192-1.743-1.688 0-3.1.581-4.234 1.743-1.107 1.162-1.66 2.67-1.66 4.524s.553 3.362 1.66 4.524c1.134 1.162 2.546 1.743 4.234 1.743 1.688 0 3.085-.581 4.192-1.743 1.134-1.162 1.701-2.67 1.701-4.524s-.567-3.362-1.701-4.524zm26.861-6.89h5.935V155h-5.936v-3.154c-1.743 2.435-4.095 3.652-7.056 3.652-2.518 0-4.51-.802-5.976-2.407-1.44-1.633-2.159-3.833-2.159-6.6v-14.319h5.936v13.033c0 1.549.318 2.711.954 3.486.664.775 1.743 1.162 3.238 1.162 1.632 0 2.877-.484 3.735-1.452.886-.969 1.328-2.38 1.328-4.234v-11.995zm34.407 23.326c-3.403 0-6.24-1.134-8.508-3.403-2.242-2.269-3.362-5.106-3.362-8.509 0-3.404 1.12-6.24 3.362-8.509 2.269-2.269 5.119-3.403 8.55-3.403 2.878 0 5.382.83 7.512 2.49 2.159 1.633 3.445 3.86 3.86 6.683h-6.101c-.332-1.19-.982-2.103-1.951-2.74-.941-.636-2.047-.954-3.32-.954-1.799 0-3.238.594-4.317 1.784-1.079 1.19-1.605 2.74-1.577 4.649-.028 1.909.498 3.459 1.577 4.649 1.107 1.189 2.532 1.784 4.275 1.784 1.273 0 2.394-.318 3.362-.954.969-.637 1.619-1.564 1.951-2.781h6.101c-.442 2.905-1.743 5.174-3.901 6.807-2.131 1.605-4.635 2.407-7.513 2.407zm32.237-23.326h5.935L141.607 155h-5.935v-3.071c-1.743 2.379-4.123 3.569-7.139 3.569s-5.506-1.107-7.471-3.32c-1.964-2.242-2.947-5.106-2.947-8.592 0-3.487.983-6.337 2.947-8.55 1.992-2.242 4.469-3.362 7.43-3.362 3.043 0 5.451 1.231 7.222 3.694v-3.196zm-5.853 17.681c1.688 0 3.086-.581 4.192-1.743 1.107-1.162 1.661-2.67 1.661-4.524s-.554-3.362-1.661-4.524c-1.106-1.162-2.504-1.743-4.192-1.743-1.688 0-3.071.581-4.15 1.743-1.079 1.162-1.619 2.67-1.619 4.524s.54 3.362 1.619 4.524c1.107 1.162 2.49 1.743 4.15 1.743zm29.551-18.179c2.573 0 4.593.802 6.06 2.407 1.467 1.605 2.2 3.805 2.2 6.6V155h-5.936v-13.033c0-1.549-.332-2.712-.996-3.486-.664-.775-1.757-1.162-3.279-1.162-3.431 0-5.146 1.895-5.146 5.686V155h-5.936v-22.828h5.936v3.113c1.715-2.408 4.081-3.611 7.097-3.611zm42.621-8.633h5.936V155h-5.936v-3.071c-1.743 2.379-4.136 3.569-7.18 3.569-2.989 0-5.479-1.107-7.471-3.32-1.965-2.242-2.947-5.106-2.947-8.592 0-3.487.982-6.337 2.947-8.55 1.992-2.242 4.469-3.362 7.429-3.362 3.044 0 5.451 1.231 7.222 3.694v-12.327zm-5.852 26.812c1.688 0 3.085-.581 4.192-1.743 1.107-1.162 1.66-2.67 1.66-4.524s-.553-3.362-1.66-4.524c-1.107-1.162-2.504-1.743-4.192-1.743-1.688 0-3.071.581-4.151 1.743-1.079 1.162-1.618 2.67-1.618 4.524s.539 3.362 1.618 4.524c1.107 1.162 2.491 1.743 4.151 1.743zm19.416-14.776c2.296-2.269 5.105-3.403 8.425-3.403 3.321 0 6.129 1.134 8.426 3.403 2.324 2.269 3.486 5.105 3.486 8.509 0 3.431-1.148 6.281-3.445 8.55-2.269 2.241-5.091 3.362-8.467 3.362-3.348 0-6.17-1.134-8.467-3.403-2.269-2.269-3.403-5.106-3.403-8.509 0-3.404 1.148-6.24 3.445-8.509zm12.617 3.985c-1.106-1.162-2.504-1.743-4.192-1.743-1.688 0-3.099.581-4.233 1.743-1.107 1.162-1.661 2.67-1.661 4.524s.554 3.362 1.661 4.524c1.134 1.162 2.545 1.743 4.233 1.743 1.688 0 3.086-.581 4.192-1.743 1.135-1.162 1.702-2.67 1.702-4.524s-.567-3.362-1.702-4.524zm35.694-7.388c3.735 0 6.682 1.286 8.84 3.86 2.186 2.573 3.127 5.769 2.823 9.588h-17.516c.194 1.771.831 3.126 1.91 4.067 1.079.941 2.421 1.411 4.026 1.411 1.162 0 2.2-.249 3.113-.747.913-.525 1.563-1.231 1.95-2.116h6.143c-.802 2.573-2.213 4.51-4.233 5.81-2.02 1.301-4.331 1.951-6.932 1.951-3.542 0-6.433-1.121-8.674-3.362-2.242-2.241-3.362-5.077-3.362-8.509 0-3.431 1.12-6.281 3.362-8.55 2.241-2.269 5.091-3.403 8.55-3.403zm-.042 4.897c-1.411 0-2.587.388-3.528 1.163-.941.747-1.605 1.757-1.992 3.03h10.916c-.332-1.273-.969-2.283-1.909-3.03-.941-.775-2.103-1.163-3.487-1.163zm29.838-4.399h6.309L292.168 155h-7.097l-7.845-22.828h6.309l5.064 16.395 5.105-16.395zm19.492-.498c3.735 0 6.682 1.286 8.84 3.86 2.186 2.573 3.127 5.769 2.823 9.588h-17.516c.194 1.771.831 3.126 1.91 4.067 1.079.941 2.421 1.411 4.026 1.411 1.162 0 2.2-.249 3.113-.747.913-.525 1.563-1.231 1.95-2.116h6.143c-.802 2.573-2.213 4.51-4.233 5.81-2.02 1.301-4.331 1.951-6.932 1.951-3.542 0-6.433-1.121-8.674-3.362-2.242-2.241-3.362-5.077-3.362-8.509 0-3.431 1.12-6.281 3.362-8.55 2.241-2.269 5.091-3.403 8.55-3.403zm-.042 4.897c-1.411 0-2.587.388-3.528 1.163-.941.747-1.605 1.757-1.992 3.03h10.916c-.332-1.273-.968-2.283-1.909-3.03-.941-.775-2.103-1.163-3.487-1.163zm28.82-4.897c.387 0 .83.027 1.328.083v6.101a17.059 17.059 0 00-1.453-.083c-2.103 0-3.805.554-5.105 1.66-1.273 1.08-1.909 2.878-1.909 5.396V155h-5.936v-22.828h5.936v3.984c1.411-2.988 3.79-4.482 7.139-4.482zm20.744.498h6.351l-14.859 33.204h-6.309l5.977-13.406-8.8-19.798h6.309l5.645 13.365 5.686-13.365zm26.568 16.685l.996 4.815c-.692.47-1.688.899-2.988 1.287a14.014 14.014 0 01-3.819.539c-2.463 0-4.51-.775-6.143-2.324-1.605-1.55-2.407-3.874-2.407-6.973v-8.426h-4.068v-5.603h4.068v-4.939l5.935-1.287v6.226h8.467v5.603h-8.467v8.094c0 2.739 1.218 4.109 3.653 4.109 1.079 0 2.67-.374 4.773-1.121zm18.112-17.183c2.545 0 4.551.802 6.018 2.407 1.466 1.605 2.2 3.805 2.2 6.6V155h-5.936v-13.033c0-1.549-.332-2.712-.996-3.486-.664-.775-1.757-1.162-3.279-1.162-3.403 0-5.105 1.895-5.105 5.686V155h-5.935v-31.959h5.935v12.244c1.716-2.408 4.082-3.611 7.098-3.611zm15.729-10.045c1.079 0 1.965.332 2.657.997.691.636 1.037 1.466 1.037 2.49 0 1.024-.346 1.868-1.037 2.532-.692.664-1.578.996-2.657.996-1.051 0-1.937-.332-2.656-.996-.692-.664-1.038-1.508-1.038-2.532 0-.996.346-1.826 1.038-2.49.719-.665 1.605-.997 2.656-.997zM420.139 155v-22.828h5.935V155h-5.935zm23.733-23.326c2.574 0 4.594.802 6.06 2.407 1.467 1.605 2.2 3.805 2.2 6.6V155h-5.935v-13.033c0-1.549-.332-2.712-.996-3.486-.665-.775-1.758-1.162-3.279-1.162-3.432 0-5.147 1.895-5.147 5.686V155h-5.935v-22.828h5.935v3.113c1.715-2.408 4.081-3.611 7.097-3.611zm29.846.498h5.935v22.537c0 3.376-1.024 6.074-3.071 8.094-2.048 2.048-4.787 3.072-8.218 3.072-2.961 0-5.534-.748-7.72-2.242-2.159-1.494-3.445-3.666-3.86-6.516h6.142c.609 2.324 2.366 3.486 5.272 3.486 3.68 0 5.52-1.909 5.52-5.728v-3.278c-1.771 2.379-4.164 3.569-7.181 3.569-2.988 0-5.478-1.107-7.471-3.32-1.964-2.214-2.946-5.023-2.946-8.426 0-3.404.996-6.212 2.988-8.426 1.992-2.213 4.469-3.32 7.429-3.32 3.044 0 5.438 1.217 7.181 3.652v-3.154zm-5.852 17.349c1.688 0 3.085-.567 4.192-1.701 1.107-1.135 1.66-2.602 1.66-4.4 0-1.771-.567-3.224-1.702-4.358-1.107-1.162-2.49-1.743-4.15-1.743-1.661 0-3.044.581-4.151 1.743-1.079 1.134-1.619 2.587-1.619 4.358 0 1.771.54 3.237 1.619 4.4 1.107 1.134 2.49 1.701 4.151 1.701zm42.326-17.847c2.961 0 5.437 1.12 7.43 3.362 1.992 2.213 2.988 5.063 2.988 8.55 0 3.486-.996 6.35-2.988 8.592-1.965 2.213-4.442 3.32-7.43 3.32-3.016 0-5.423-1.19-7.222-3.569v13.447h-5.935v-33.204h5.935v3.196c1.771-2.463 4.178-3.694 7.222-3.694zm-1.37 18.179c1.661 0 3.03-.581 4.109-1.743 1.107-1.162 1.661-2.67 1.661-4.524s-.54-3.362-1.619-4.524-2.463-1.743-4.151-1.743c-1.688 0-3.085.581-4.192 1.743-1.107 1.162-1.66 2.67-1.66 4.524s.553 3.362 1.66 4.524c1.107 1.162 2.504 1.743 4.192 1.743zM524.796 155v-31.959h5.935V155h-5.935zm27.718-22.828h5.935L558.408 155h-5.936v-3.071c-1.743 2.379-4.122 3.569-7.139 3.569-3.016 0-5.506-1.107-7.471-3.32-1.964-2.242-2.947-5.106-2.947-8.592 0-3.487.983-6.337 2.947-8.55 1.993-2.242 4.469-3.362 7.43-3.362 3.044 0 5.451 1.231 7.222 3.694v-3.196zm-5.852 17.681c1.688 0 3.085-.581 4.192-1.743 1.107-1.162 1.66-2.67 1.66-4.524s-.553-3.362-1.66-4.524c-1.107-1.162-2.504-1.743-4.192-1.743-1.688 0-3.072.581-4.151 1.743-1.079 1.162-1.619 2.67-1.619 4.524s.54 3.362 1.619 4.524c1.107 1.162 2.49 1.743 4.151 1.743zm29.55-18.179c2.574 0 4.594.802 6.06 2.407 1.467 1.605 2.2 3.805 2.2 6.6V155h-5.935v-13.033c0-1.549-.332-2.712-.996-3.486-.665-.775-1.757-1.162-3.279-1.162-3.431 0-5.147 1.895-5.147 5.686V155h-5.935v-22.828h5.935v3.113c1.716-2.408 4.081-3.611 7.097-3.611z" fill="#266aa4"/><path d="M777 76.143v6.9a74.999 74.999 0 01-137.918 40.778 74.999 74.999 0 0193.443-109.328" stroke="#000" stroke-width="15" stroke-linecap="round" stroke-linejoin="round"/><path d="M777 23.043l-75 75.075-22.5-22.5" stroke="#266aa4" stroke-width="15" stroke-linecap="round" stroke-linejoin="round"/></svg>