<svg width="754" height="314" viewBox="0 0 754 314" fill="none" xmlns="http://www.w3.org/2000/svg">
<path d="M304.313 28.3907C304.681 28.5485 305.078 28.6276 305.479 28.6227C306.274 28.6227 307.068 28.3782 307.679 27.7671C320.941 14.4447 338.663 7.11121 357.486 7.11121C364.398 7.12512 371.272 8.13362 377.897 10.1057C379.486 10.6557 381.197 9.73903 381.686 8.08901C381.915 7.31915 381.832 6.48992 381.455 5.78081C381.077 5.07169 380.436 4.53973 379.669 4.30005C372.519 2.10002 365.002 1 357.486 1C337.013 1 317.824 8.94457 303.34 23.367C302.118 24.5893 302.118 26.4838 303.34 27.706C303.613 27.9996 303.944 28.2328 304.313 28.3907Z" fill="black"/>
<path d="M290.507 86.4349C290.507 88.1461 291.852 89.4905 293.563 89.4905C295.274 89.4905 296.618 88.1461 296.618 86.4349C296.618 52.8844 323.935 25.5673 357.486 25.5673C359.197 25.5673 360.542 24.2228 360.542 22.5117C360.542 20.8005 359.197 19.4561 357.486 19.4561C320.574 19.4561 290.507 49.5232 290.507 86.4349Z" fill="black"/>
<path d="M417.681 92.5461C415.97 92.5461 414.626 91.2017 414.626 89.4905C414.626 87.7794 415.97 86.4349 417.681 86.4349C425.464 86.438 433.059 84.0486 439.437 79.5904C449.46 72.4403 455.51 60.8901 455.51 48.5454C455.51 46.8343 456.854 45.4898 458.565 45.4898C460.277 45.4898 461.621 46.8954 461.621 48.5454C461.619 55.6051 459.919 62.5606 456.664 68.8253C453.409 75.0899 448.696 80.4799 442.921 84.5405C435.526 89.7961 426.787 92.5461 417.681 92.5461Z" fill="black"/>
<path d="M449.962 3.11671C449.962 1.40558 448.556 0 446.845 0C445.134 0 443.728 1.40558 443.728 3.11671V13.6402L441.791 15.1558H411.357C384.938 15.1558 363.855 38.2867 363.855 65.2677V67.8956C363.855 72.3445 367.35 76.1457 371.915 76.1457H402.465C428.805 76.1457 449.962 54.0109 449.962 26.9505V3.11671ZM442.634 21.267C441.87 22.6237 440.734 23.7726 439.328 24.5671L389.95 51.5175C388.422 52.312 387.872 54.2065 388.727 55.7343C389.121 56.4589 389.784 56.9996 390.573 57.2397C391.362 57.4798 392.213 57.4 392.944 57.0176L442.323 30.0672C442.833 29.7821 443.327 29.4679 443.802 29.126C442.708 52.0125 424.521 70.0345 402.465 70.0345H371.909C370.944 70.0345 369.966 69.1911 369.966 67.8956V65.2677C369.966 41.2812 388.678 21.267 411.351 21.267H442.634Z" fill="black"/>
<path d="M318.022 80.543L323.375 86.1226H366.581C405.956 86.1226 437.374 119.655 437.374 160.313V164.163C437.374 171.453 431.678 177.913 424.002 177.913H379.647C340.266 177.913 308.855 144.381 308.855 103.723V68.5834C308.855 66.0778 310.933 64 313.438 64C315.944 64 318.022 66.0778 318.022 68.5834V80.543ZM379.647 165.691H424.002C424.136 165.687 424.268 165.655 424.389 165.598C424.511 165.54 424.618 165.457 424.705 165.354C425.001 165.029 425.161 164.603 425.151 164.163V160.313C425.151 125.803 398.628 98.345 366.581 98.345H321.982C322.733 99.0478 323.571 99.665 324.499 100.178L397.223 139.901C399.423 141.123 400.278 143.874 399.056 146.135C398.262 147.662 396.673 148.518 395.084 148.518C394.351 148.518 393.617 148.335 392.884 147.968L321.273 108.856C323.748 140.91 349.213 165.691 379.647 165.691Z" fill="black"/>
<path d="M41.8318 240.412V250.831H26.3556V294.042H15.3996V250.831H0V240.412H41.8318Z" fill="black"/>
<path d="M53.6737 257.267C57.913 253.079 63.0973 250.984 69.2265 250.984C75.3557 250.984 80.54 253.079 84.7794 257.267C89.0698 261.455 91.2151 266.69 91.2151 272.973C91.2151 279.306 89.0954 284.567 84.856 288.756C80.6677 292.893 75.4579 294.961 69.2265 294.961C63.0463 294.961 57.8364 292.867 53.5971 288.679C49.4088 284.491 47.3146 279.255 47.3146 272.973C47.3146 266.69 49.4343 261.455 53.6737 257.267ZM76.9647 264.622C74.9216 262.477 72.3422 261.404 69.2265 261.404C66.1109 261.404 63.5059 262.477 61.4118 264.622C59.3687 266.767 58.3472 269.551 58.3472 272.973C58.3472 276.395 59.3687 279.179 61.4118 281.324C63.5059 283.469 66.1109 284.542 69.2265 284.542C72.3422 284.542 74.9216 283.469 76.9647 281.324C79.0588 279.179 80.1059 276.395 80.1059 272.973C80.1059 269.551 79.0588 266.767 76.9647 264.622Z" fill="black"/>
<path d="M126.164 266.078V276.574H100.344V266.078H126.164Z" fill="black"/>
<path d="M168.4 235.048H179.356V294.042H168.4V288.373C165.182 292.765 160.764 294.961 155.146 294.961C149.629 294.961 145.032 292.918 141.355 288.832C137.728 284.695 135.915 279.409 135.915 272.973C135.915 266.537 137.728 261.276 141.355 257.19C145.032 253.053 149.604 250.984 155.069 250.984C160.687 250.984 165.131 253.257 168.4 257.803V235.048ZM157.597 284.542C160.713 284.542 163.292 283.469 165.335 281.324C167.378 279.179 168.4 276.395 168.4 272.973C168.4 269.551 167.378 266.767 165.335 264.622C163.292 262.477 160.713 261.404 157.597 261.404C154.482 261.404 151.928 262.477 149.936 264.622C147.944 266.767 146.948 269.551 146.948 272.973C146.948 276.395 147.944 279.179 149.936 281.324C151.979 283.469 154.533 284.542 157.597 284.542Z" fill="black"/>
<path d="M193.436 257.267C197.676 253.079 202.86 250.984 208.989 250.984C215.118 250.984 220.303 253.079 224.542 257.267C228.833 261.455 230.978 266.69 230.978 272.973C230.978 279.306 228.858 284.567 224.619 288.756C220.43 292.893 215.221 294.961 208.989 294.961C202.809 294.961 197.599 292.867 193.36 288.679C189.171 284.491 187.077 279.255 187.077 272.973C187.077 266.69 189.197 261.455 193.436 257.267ZM216.727 264.622C214.684 262.477 212.105 261.404 208.989 261.404C205.874 261.404 203.269 262.477 201.175 264.622C199.131 266.767 198.11 269.551 198.11 272.973C198.11 276.395 199.131 279.179 201.175 281.324C203.269 283.469 205.874 284.542 208.989 284.542C212.105 284.542 214.684 283.469 216.727 281.324C218.822 279.179 219.869 276.395 219.869 272.973C219.869 269.551 218.822 266.767 216.727 264.622Z" fill="black"/>
<path d="M261.697 294.042V235.048H272.653V294.042H261.697Z" fill="black"/>
<path d="M286.889 232.444C288.881 232.444 290.516 233.056 291.793 234.282C293.07 235.457 293.708 236.989 293.708 238.879C293.708 240.769 293.07 242.327 291.793 243.553C290.516 244.779 288.881 245.391 286.889 245.391C284.949 245.391 283.314 244.779 281.986 243.553C280.709 242.327 280.071 240.769 280.071 238.879C280.071 237.04 280.709 235.508 281.986 234.282C283.314 233.056 284.949 232.444 286.889 232.444ZM281.373 294.042V251.904H292.329V294.042H281.373Z" fill="black"/>
<path d="M320.586 294.961C314.916 294.961 310.192 293.659 306.412 291.054C302.632 288.398 300.359 284.772 299.593 280.175H310.702C311.622 283.954 315.018 285.844 320.892 285.844C325.642 285.844 328.017 284.695 328.017 282.397C328.017 282.09 327.966 281.809 327.864 281.554C327.813 281.298 327.685 281.069 327.481 280.864C327.328 280.66 327.149 280.481 326.945 280.328C326.74 280.124 326.434 279.945 326.025 279.792C325.668 279.638 325.336 279.511 325.029 279.409C324.723 279.306 324.263 279.179 323.65 279.026C323.088 278.872 322.578 278.745 322.118 278.642C321.709 278.54 321.122 278.413 320.356 278.259C319.59 278.106 318.926 277.953 318.364 277.8C312.081 276.318 307.689 274.71 305.186 272.973C302.734 271.185 301.509 268.529 301.509 265.005C301.509 260.612 303.169 257.19 306.489 254.739C309.86 252.236 314.354 250.984 319.973 250.984C325.591 250.984 329.958 252.21 333.074 254.662C336.19 257.063 338.131 260.331 338.897 264.469H327.788C326.868 261.608 324.136 260.178 319.59 260.178C314.891 260.178 312.541 261.353 312.541 263.703C312.541 264.622 313.026 265.286 313.997 265.694C314.967 266.103 317.164 266.69 320.586 267.457C324.008 268.223 326.715 268.938 328.707 269.602C330.699 270.215 332.589 271.032 334.376 272.054C336.164 273.075 337.441 274.301 338.207 275.731C338.973 277.161 339.356 278.898 339.356 280.941C339.356 285.487 337.594 288.96 334.07 291.361C330.546 293.761 326.051 294.961 320.586 294.961Z" fill="black"/>
<path d="M377.802 282.703L379.64 291.59C378.363 292.459 376.525 293.25 374.124 293.965C371.775 294.629 369.425 294.961 367.076 294.961C362.53 294.961 358.75 293.531 355.737 290.671C352.774 287.811 351.293 283.52 351.293 277.8V262.247H343.785V251.904H351.293V242.787L362.249 240.412V251.904H377.878V262.247H362.249V277.187C362.249 282.243 364.496 284.772 368.991 284.772C370.983 284.772 373.92 284.082 377.802 282.703Z" fill="black"/>
<path d="M415.28 232.444C417.272 232.444 418.906 233.056 420.183 234.282C421.46 235.457 422.098 236.989 422.098 238.879C422.098 240.769 421.46 242.327 420.183 243.553C418.906 244.779 417.272 245.391 415.28 245.391C413.339 245.391 411.704 244.779 410.376 243.553C409.099 242.327 408.461 240.769 408.461 238.879C408.461 237.04 409.099 235.508 410.376 234.282C411.704 233.056 413.339 232.444 415.28 232.444ZM409.763 294.042V251.904H420.719V294.042H409.763Z" fill="black"/>
<path d="M448.976 294.961C443.306 294.961 438.582 293.659 434.802 291.054C431.022 288.398 428.75 284.772 427.983 280.175H439.093C440.012 283.954 443.409 285.844 449.282 285.844C454.032 285.844 456.408 284.695 456.408 282.397C456.408 282.09 456.356 281.809 456.254 281.554C456.203 281.298 456.076 281.069 455.871 280.864C455.718 280.66 455.539 280.481 455.335 280.328C455.131 280.124 454.824 279.945 454.416 279.792C454.058 279.638 453.726 279.511 453.42 279.409C453.113 279.306 452.653 279.179 452.04 279.026C451.479 278.872 450.968 278.745 450.508 278.642C450.1 278.54 449.512 278.413 448.746 278.259C447.98 278.106 447.316 277.953 446.754 277.8C440.472 276.318 436.079 274.71 433.576 272.973C431.125 271.185 429.899 268.529 429.899 265.005C429.899 260.612 431.559 257.19 434.879 254.739C438.25 252.236 442.745 250.984 448.363 250.984C453.981 250.984 458.348 252.21 461.464 254.662C464.58 257.063 466.521 260.331 467.287 264.469H456.178C455.258 261.608 452.526 260.178 447.98 260.178C443.281 260.178 440.931 261.353 440.931 263.703C440.931 264.622 441.417 265.286 442.387 265.694C443.357 266.103 445.554 266.69 448.976 267.457C452.398 268.223 455.105 268.938 457.097 269.602C459.089 270.215 460.979 271.032 462.767 272.054C464.554 273.075 465.831 274.301 466.597 275.731C467.364 277.161 467.747 278.898 467.747 280.941C467.747 285.487 465.984 288.96 462.46 291.361C458.936 293.761 454.441 294.961 448.976 294.961Z" fill="black"/>
<path d="M518.818 250.984C525.714 250.984 531.153 253.359 535.137 258.11C539.172 262.86 540.909 268.759 540.347 275.808H508.016C508.373 279.077 509.548 281.579 511.54 283.316C513.532 285.053 516.009 285.921 518.972 285.921C521.117 285.921 523.032 285.461 524.718 284.542C526.403 283.571 527.604 282.269 528.319 280.634H539.658C538.176 285.385 535.571 288.96 531.843 291.361C528.114 293.761 523.849 294.961 519.048 294.961C512.51 294.961 507.173 292.893 503.036 288.756C498.898 284.618 496.83 279.383 496.83 273.05C496.83 266.716 498.898 261.455 503.036 257.267C507.173 253.079 512.434 250.984 518.818 250.984ZM518.742 260.025C516.137 260.025 513.966 260.74 512.229 262.17C510.493 263.549 509.267 265.414 508.552 267.763H528.702C528.089 265.414 526.914 263.549 525.177 262.17C523.441 260.74 521.296 260.025 518.742 260.025Z" fill="black"/>
<path d="M598.218 250.984C602.713 250.984 606.263 252.44 608.867 255.351C611.472 258.263 612.775 262.272 612.775 267.38V294.042H601.819V269.755C601.819 266.997 601.231 264.928 600.057 263.549C598.933 262.119 597.094 261.404 594.54 261.404C591.68 261.404 589.509 262.323 588.028 264.162C586.547 265.95 585.806 268.529 585.806 271.9V294.042H574.85V269.755C574.85 266.997 574.263 264.928 573.088 263.549C571.965 262.119 570.126 261.404 567.572 261.404C564.712 261.404 562.515 262.323 560.983 264.162C559.502 265.95 558.761 268.529 558.761 271.9L558.838 294.042H547.805V251.904H558.838V257.497C561.902 253.155 566.065 250.984 571.326 250.984C577.455 250.984 581.72 253.64 584.121 258.952C587.39 253.64 592.089 250.984 598.218 250.984Z" fill="black"/>
<path d="M645.798 250.984C651.263 250.984 655.835 253.053 659.512 257.19C663.19 261.276 665.029 266.537 665.029 272.973C665.029 279.409 663.19 284.695 659.512 288.832C655.886 292.918 651.315 294.961 645.798 294.961C640.231 294.961 635.787 292.765 632.467 288.373V313.196H621.511V251.904H632.467V257.803C635.736 253.257 640.18 250.984 645.798 250.984ZM643.27 284.542C646.335 284.542 648.863 283.469 650.855 281.324C652.898 279.179 653.919 276.395 653.919 272.973C653.919 269.551 652.923 266.767 650.931 264.622C648.939 262.477 646.386 261.404 643.27 261.404C640.154 261.404 637.575 262.477 635.532 264.622C633.489 266.767 632.467 269.551 632.467 272.973C632.467 276.395 633.489 279.179 635.532 281.324C637.575 283.469 640.154 284.542 643.27 284.542Z" fill="black"/>
<path d="M704.014 282.703L705.853 291.59C704.576 292.459 702.737 293.25 700.337 293.965C697.987 294.629 695.638 294.961 693.288 294.961C688.742 294.961 684.963 293.531 681.949 290.671C678.987 287.811 677.506 283.52 677.506 277.8V262.247H669.997V251.904H677.506V242.787L688.462 240.412V251.904H704.091V262.247H688.462V277.187C688.462 282.243 690.709 284.772 695.204 284.772C697.196 284.772 700.133 284.082 704.014 282.703Z" fill="black"/>
<path d="M741.689 251.904H753.411L725.983 313.196H714.338L725.37 288.449L709.128 251.904H720.773L731.193 276.574L741.689 251.904Z" fill="black"/>
</svg>
