<svg width="785" height="166" viewBox="0 0 785 166" fill="none" xmlns="http://www.w3.org/2000/svg">
<path d="M56.191 30.256V13.936H2.71899V30.256H20.767V82H38.143V30.256H56.191Z" fill="black"/>
<path d="M60.7127 59.632C60.7127 75.184 74.8247 82.96 88.9367 82.96C103.049 82.96 117.065 75.184 117.065 59.632V36.4C117.065 20.848 102.953 13.072 88.8407 13.072C74.7287 13.072 60.7127 20.752 60.7127 36.4V59.632ZM77.8967 36.4C77.8967 31.408 83.2727 28.72 88.6487 28.72C94.2167 28.72 99.8807 31.12 99.8807 36.4V59.632C99.8807 64.528 94.4087 67.024 88.9367 67.024C83.4647 67.024 77.8967 64.624 77.8967 59.632V36.4Z" fill="black"/>
<path d="M142.858 50.224C142.858 58.864 149.77 65.872 158.506 65.872C167.05 65.872 173.962 58.864 173.962 50.224C173.962 41.68 167.05 34.672 158.506 34.672C149.77 34.672 142.858 41.68 142.858 50.224Z" fill="black"/>
<path d="M201.376 14.032V82H226.816C240.448 82.096 253.216 75.28 253.216 59.632V36.784C253.216 20.944 240.448 14.032 226.816 14.032H201.376ZM218.656 65.872V30.064H227.392C233.152 30.064 235.936 32.848 235.936 37.264V58.48C235.936 62.896 233.248 65.872 227.392 65.872H218.656Z" fill="black"/>
<path d="M260.775 59.632C260.775 75.184 274.887 82.96 288.999 82.96C303.111 82.96 317.127 75.184 317.127 59.632V36.4C317.127 20.848 303.015 13.072 288.903 13.072C274.791 13.072 260.775 20.752 260.775 36.4V59.632ZM277.959 36.4C277.959 31.408 283.335 28.72 288.711 28.72C294.279 28.72 299.943 31.12 299.943 36.4V59.632C299.943 64.528 294.471 67.024 288.999 67.024C283.527 67.024 277.959 64.624 277.959 59.632V36.4Z" fill="black"/>
<path d="M342.921 50.224C342.921 58.864 349.833 65.872 358.569 65.872C367.113 65.872 374.025 58.864 374.025 50.224C374.025 41.68 367.113 34.672 358.569 34.672C349.833 34.672 342.921 41.68 342.921 50.224Z" fill="black"/>
<path d="M401.439 82H446.367V65.008H418.719V14.032H401.439V82Z" fill="black"/>
<path d="M470.372 14.032H453.189V82H470.372V14.032Z" fill="black"/>
<path d="M477.862 70.672C484.198 78.832 492.838 82.96 500.998 82.96C513.478 82.96 527.302 75.76 527.878 62.608C528.646 45.904 516.55 41.68 504.454 39.472C499.174 38.32 495.622 36.4 495.43 33.136C495.718 25.264 507.91 24.976 515.014 32.56L526.246 23.92C519.238 15.376 511.27 13.072 503.014 13.072C490.534 13.072 478.438 20.08 478.438 33.424C478.438 46.384 488.422 53.296 499.366 55.024C504.934 55.792 511.174 58 510.982 61.84C510.502 69.136 495.526 68.752 488.71 60.496L477.862 70.672Z" fill="black"/>
<path d="M584.753 30.256V13.936H531.281V30.256H549.33V82H566.706V30.256H584.753Z" fill="black"/>
<path d="M18.553 132.172H24.9034L10.0443 165.376H3.73548L9.7123 151.97L0.913086 132.172H7.22196L12.8667 145.537L18.553 132.172Z" fill="#266aa4"/>
<path d="M29.591 135.077C31.8876 132.808 34.6962 131.674 38.0166 131.674C41.3371 131.674 44.1456 132.808 46.4423 135.077C48.7666 137.346 49.9288 140.182 49.9288 143.586C49.9288 147.017 48.7804 149.867 46.4838 152.136C44.2148 154.377 41.3924 155.498 38.0166 155.498C34.6685 155.498 31.8461 154.364 29.5494 152.095C27.2805 149.826 26.146 146.989 26.146 143.586C26.146 140.182 27.2943 137.346 29.591 135.077ZM42.2087 139.062C41.1019 137.9 39.7045 137.319 38.0166 137.319C36.3287 137.319 34.9175 137.9 33.783 139.062C32.6762 140.224 32.1228 141.732 32.1228 143.586C32.1228 145.44 32.6762 146.948 33.783 148.11C34.9175 149.272 36.3287 149.853 38.0166 149.853C39.7045 149.853 41.1019 149.272 42.2087 148.11C43.3432 146.948 43.9104 145.44 43.9104 143.586C43.9104 141.732 43.3432 140.224 42.2087 139.062Z" fill="#266aa4"/>
<path d="M69.0694 132.172H75.0047V155H69.0694V151.846C67.3262 154.281 64.9742 155.498 62.0134 155.498C59.4954 155.498 57.5031 154.696 56.0366 153.091C54.5977 151.458 53.8783 149.258 53.8783 146.491V132.172H59.8136V145.205C59.8136 146.754 60.1318 147.916 60.7682 148.691C61.4323 149.466 62.5115 149.853 64.0057 149.853C65.6383 149.853 66.8834 149.369 67.7412 148.401C68.6267 147.432 69.0694 146.021 69.0694 144.167V132.172Z" fill="#266aa4"/>
<path d="M103.477 155.498C100.074 155.498 97.2376 154.364 94.9687 152.095C92.7273 149.826 91.6067 146.989 91.6067 143.586C91.6067 140.182 92.7273 137.346 94.9687 135.077C97.2376 132.808 100.088 131.674 103.519 131.674C106.397 131.674 108.901 132.504 111.031 134.164C113.19 135.797 114.476 138.024 114.891 140.847H108.79C108.458 139.657 107.808 138.744 106.839 138.107C105.898 137.471 104.792 137.153 103.519 137.153C101.72 137.153 100.281 137.747 99.2022 138.937C98.1231 140.127 97.5973 141.677 97.625 143.586C97.5973 145.495 98.1231 147.045 99.2022 148.235C100.309 149.424 101.734 150.019 103.477 150.019C104.75 150.019 105.871 149.701 106.839 149.065C107.808 148.428 108.458 147.501 108.79 146.284H114.891C114.449 149.189 113.148 151.458 110.99 153.091C108.859 154.696 106.355 155.498 103.477 155.498Z" fill="#266aa4"/>
<path d="M135.714 132.172H141.649L141.607 155H135.672V151.929C133.929 154.308 131.549 155.498 128.533 155.498C125.517 155.498 123.027 154.391 121.062 152.178C119.098 149.936 118.115 147.072 118.115 143.586C118.115 140.099 119.098 137.249 121.062 135.036C123.054 132.794 125.531 131.674 128.492 131.674C131.535 131.674 133.943 132.905 135.714 135.368V132.172ZM129.861 149.853C131.549 149.853 132.947 149.272 134.053 148.11C135.16 146.948 135.714 145.44 135.714 143.586C135.714 141.732 135.16 140.224 134.053 139.062C132.947 137.9 131.549 137.319 129.861 137.319C128.173 137.319 126.79 137.9 125.711 139.062C124.632 140.224 124.092 141.732 124.092 143.586C124.092 145.44 124.632 146.948 125.711 148.11C126.818 149.272 128.201 149.853 129.861 149.853Z" fill="#266aa4"/>
<path d="M159.412 131.674C161.985 131.674 164.005 132.476 165.472 134.081C166.939 135.686 167.672 137.886 167.672 140.681V155H161.736V141.967C161.736 140.418 161.404 139.255 160.74 138.481C160.076 137.706 158.983 137.319 157.461 137.319C154.03 137.319 152.315 139.214 152.315 143.005V155H146.379V132.172H152.315V135.285C154.03 132.877 156.396 131.674 159.412 131.674Z" fill="#266aa4"/>
<path d="M202.033 123.041H207.969V155H202.033V151.929C200.29 154.308 197.897 155.498 194.853 155.498C191.864 155.498 189.374 154.391 187.382 152.178C185.417 149.936 184.435 147.072 184.435 143.586C184.435 140.099 185.417 137.249 187.382 135.036C189.374 132.794 191.851 131.674 194.811 131.674C197.855 131.674 200.262 132.905 202.033 135.368V123.041ZM196.181 149.853C197.869 149.853 199.266 149.272 200.373 148.11C201.48 146.948 202.033 145.44 202.033 143.586C202.033 141.732 201.48 140.224 200.373 139.062C199.266 137.9 197.869 137.319 196.181 137.319C194.493 137.319 193.11 137.9 192.03 139.062C190.951 140.224 190.412 141.732 190.412 143.586C190.412 145.44 190.951 146.948 192.03 148.11C193.137 149.272 194.521 149.853 196.181 149.853Z" fill="#266aa4"/>
<path d="M215.597 135.077C217.893 132.808 220.702 131.674 224.022 131.674C227.343 131.674 230.151 132.808 232.448 135.077C234.772 137.346 235.934 140.182 235.934 143.586C235.934 147.017 234.786 149.867 232.489 152.136C230.22 154.377 227.398 155.498 224.022 155.498C220.674 155.498 217.852 154.364 215.555 152.095C213.286 149.826 212.152 146.989 212.152 143.586C212.152 140.182 213.3 137.346 215.597 135.077ZM228.214 139.062C227.108 137.9 225.71 137.319 224.022 137.319C222.334 137.319 220.923 137.9 219.789 139.062C218.682 140.224 218.128 141.732 218.128 143.586C218.128 145.44 218.682 146.948 219.789 148.11C220.923 149.272 222.334 149.853 224.022 149.853C225.71 149.853 227.108 149.272 228.214 148.11C229.349 146.948 229.916 145.44 229.916 143.586C229.916 141.732 229.349 140.224 228.214 139.062Z" fill="#266aa4"/>
<path d="M263.908 131.674C267.643 131.674 270.59 132.96 272.748 135.534C274.934 138.107 275.875 141.303 275.571 145.122H258.055C258.249 146.893 258.886 148.248 259.965 149.189C261.044 150.13 262.386 150.6 263.991 150.6C265.153 150.6 266.191 150.351 267.104 149.853C268.017 149.328 268.667 148.622 269.054 147.737H275.197C274.395 150.31 272.984 152.247 270.964 153.547C268.944 154.848 266.633 155.498 264.032 155.498C260.49 155.498 257.599 154.377 255.358 152.136C253.116 149.895 251.996 147.059 251.996 143.627C251.996 140.196 253.116 137.346 255.358 135.077C257.599 132.808 260.449 131.674 263.908 131.674ZM263.866 136.571C262.455 136.571 261.279 136.959 260.338 137.734C259.397 138.481 258.733 139.491 258.346 140.764H269.262C268.93 139.491 268.293 138.481 267.353 137.734C266.412 136.959 265.25 136.571 263.866 136.571Z" fill="#266aa4"/>
<path d="M293.704 132.172H300.013L292.168 155H285.071L277.226 132.172H283.535L288.599 148.567L293.704 132.172Z" fill="#266aa4"/>
<path d="M313.196 131.674C316.931 131.674 319.878 132.96 322.036 135.534C324.222 138.107 325.163 141.303 324.859 145.122H307.343C307.537 146.893 308.174 148.248 309.253 149.189C310.332 150.13 311.674 150.6 313.279 150.6C314.441 150.6 315.479 150.351 316.392 149.853C317.305 149.328 317.955 148.622 318.342 147.737H324.485C323.683 150.31 322.272 152.247 320.252 153.547C318.232 154.848 315.921 155.498 313.32 155.498C309.778 155.498 306.887 154.377 304.646 152.136C302.404 149.895 301.284 147.059 301.284 143.627C301.284 140.196 302.404 137.346 304.646 135.077C306.887 132.808 309.737 131.674 313.196 131.674ZM313.154 136.571C311.743 136.571 310.567 136.959 309.626 137.734C308.685 138.481 308.021 139.491 307.634 140.764H318.55C318.218 139.491 317.582 138.481 316.641 137.734C315.7 136.959 314.538 136.571 313.154 136.571Z" fill="#266aa4"/>
<path d="M341.974 131.674C342.361 131.674 342.804 131.701 343.302 131.757V137.858C342.693 137.803 342.209 137.775 341.849 137.775C339.746 137.775 338.044 138.329 336.744 139.435C335.471 140.515 334.835 142.313 334.835 144.831V155H328.899V132.172H334.835V136.156C336.246 133.168 338.625 131.674 341.974 131.674Z" fill="#266aa4"/>
<path d="M362.718 132.172H369.069L354.21 165.376H347.901L353.878 151.97L345.078 132.172H351.387L357.032 145.537L362.718 132.172Z" fill="#266aa4"/>
<path d="M389.286 148.857L390.282 153.672C389.59 154.142 388.594 154.571 387.294 154.959C386.021 155.318 384.748 155.498 383.475 155.498C381.012 155.498 378.965 154.723 377.332 153.174C375.727 151.624 374.925 149.3 374.925 146.201V137.775H370.857V132.172H374.925V127.233L380.86 125.946V132.172H389.327V137.775H380.86V145.869C380.86 148.608 382.078 149.978 384.513 149.978C385.592 149.978 387.183 149.604 389.286 148.857Z" fill="#266aa4"/>
<path d="M407.398 131.674C409.943 131.674 411.949 132.476 413.416 134.081C414.882 135.686 415.616 137.886 415.616 140.681V155H409.68V141.967C409.68 140.418 409.348 139.255 408.684 138.481C408.02 137.706 406.927 137.319 405.405 137.319C402.002 137.319 400.3 139.214 400.3 143.005V155H394.365V123.041H400.3V135.285C402.016 132.877 404.382 131.674 407.398 131.674Z" fill="#266aa4"/>
<path d="M423.127 121.629C424.206 121.629 425.092 121.961 425.784 122.626C426.475 123.262 426.821 124.092 426.821 125.116C426.821 126.14 426.475 126.984 425.784 127.648C425.092 128.312 424.206 128.644 423.127 128.644C422.076 128.644 421.19 128.312 420.471 127.648C419.779 126.984 419.433 126.14 419.433 125.116C419.433 124.12 419.779 123.29 420.471 122.626C421.19 121.961 422.076 121.629 423.127 121.629ZM420.139 155V132.172H426.074V155H420.139Z" fill="#266aa4"/>
<path d="M443.872 131.674C446.446 131.674 448.466 132.476 449.932 134.081C451.399 135.686 452.132 137.886 452.132 140.681V155H446.197V141.967C446.197 140.418 445.865 139.255 445.201 138.481C444.536 137.706 443.443 137.319 441.922 137.319C438.49 137.319 436.775 139.214 436.775 143.005V155H430.84V132.172H436.775V135.285C438.49 132.877 440.856 131.674 443.872 131.674Z" fill="#266aa4"/>
<path d="M473.718 132.172H479.653V154.709C479.653 158.085 478.629 160.783 476.582 162.803C474.534 164.851 471.795 165.875 468.364 165.875C465.403 165.875 462.83 165.127 460.644 163.633C458.485 162.139 457.199 159.967 456.784 157.117H462.926C463.535 159.441 465.292 160.603 468.198 160.603C471.878 160.603 473.718 158.694 473.718 154.875V151.597C471.947 153.976 469.554 155.166 466.537 155.166C463.549 155.166 461.059 154.059 459.066 151.846C457.102 149.632 456.12 146.823 456.12 143.42C456.12 140.016 457.116 137.208 459.108 134.994C461.1 132.781 463.577 131.674 466.537 131.674C469.581 131.674 471.975 132.891 473.718 135.326V132.172ZM467.866 149.521C469.554 149.521 470.951 148.954 472.058 147.82C473.165 146.685 473.718 145.218 473.718 143.42C473.718 141.649 473.151 140.196 472.016 139.062C470.909 137.9 469.526 137.319 467.866 137.319C466.205 137.319 464.822 137.9 463.715 139.062C462.636 140.196 462.096 141.649 462.096 143.42C462.096 145.191 462.636 146.657 463.715 147.82C464.822 148.954 466.205 149.521 467.866 149.521Z" fill="#266aa4"/>
<path d="M510.192 131.674C513.153 131.674 515.629 132.794 517.622 135.036C519.614 137.249 520.61 140.099 520.61 143.586C520.61 147.072 519.614 149.936 517.622 152.178C515.657 154.391 513.18 155.498 510.192 155.498C507.176 155.498 504.769 154.308 502.97 151.929V165.376H497.035V132.172H502.97V135.368C504.741 132.905 507.148 131.674 510.192 131.674ZM508.822 149.853C510.483 149.853 511.852 149.272 512.931 148.11C514.038 146.948 514.592 145.44 514.592 143.586C514.592 141.732 514.052 140.224 512.973 139.062C511.894 137.9 510.51 137.319 508.822 137.319C507.134 137.319 505.737 137.9 504.63 139.062C503.523 140.224 502.97 141.732 502.97 143.586C502.97 145.44 503.523 146.948 504.63 148.11C505.737 149.272 507.134 149.853 508.822 149.853Z" fill="#266aa4"/>
<path d="M524.796 155V123.041H530.731V155H524.796Z" fill="#266aa4"/>
<path d="M552.514 132.172H558.449L558.408 155H552.472V151.929C550.729 154.308 548.35 155.498 545.333 155.498C542.317 155.498 539.827 154.391 537.862 152.178C535.898 149.936 534.915 147.072 534.915 143.586C534.915 140.099 535.898 137.249 537.862 135.036C539.855 132.794 542.331 131.674 545.292 131.674C548.336 131.674 550.743 132.905 552.514 135.368V132.172ZM546.662 149.853C548.35 149.853 549.747 149.272 550.854 148.11C551.961 146.948 552.514 145.44 552.514 143.586C552.514 141.732 551.961 140.224 550.854 139.062C549.747 137.9 548.35 137.319 546.662 137.319C544.974 137.319 543.59 137.9 542.511 139.062C541.432 140.224 540.892 141.732 540.892 143.586C540.892 145.44 541.432 146.948 542.511 148.11C543.618 149.272 545.001 149.853 546.662 149.853Z" fill="#266aa4"/>
<path d="M576.212 131.674C578.786 131.674 580.806 132.476 582.272 134.081C583.739 135.686 584.472 137.886 584.472 140.681V155H578.537V141.967C578.537 140.418 578.205 139.255 577.541 138.481C576.876 137.706 575.784 137.319 574.262 137.319C570.831 137.319 569.115 139.214 569.115 143.005V155H563.18V132.172H569.115V135.285C570.831 132.877 573.196 131.674 576.212 131.674Z" fill="#266aa4"/>
<path d="M777 76.1429V83.0429C776.991 99.2161 771.754 114.953 762.07 127.907C752.386 140.86 738.775 150.337 723.265 154.922C707.756 159.508 691.179 158.957 676.009 153.352C660.838 147.747 647.885 137.389 639.082 123.821C630.279 110.253 626.098 94.2034 627.163 78.0653C628.227 61.9272 634.479 46.5654 644.987 34.271C655.495 21.9766 669.696 13.4083 685.471 9.84402C701.247 6.27975 717.752 7.91046 732.525 14.4929" stroke="black" stroke-width="15" stroke-linecap="round" stroke-linejoin="round"/>
<path d="M777 23.043L702 98.118L679.5 75.618" stroke="#266aa4" stroke-width="15" stroke-linecap="round" stroke-linejoin="round"/>
</svg>
